<?xml version="1.0" encoding="UTF-8" standalone="no"?>
<!-- Created with Inkscape (http://www.inkscape.org/) -->

<svg
   width="157.3549mm"
   height="131.53069mm"
   viewBox="0 0 157.35491 131.53068"
   version="1.1"
   id="svg1"
   inkscape:version="1.4.2 (f4327f4, 2025-05-13)"
   sodipodi:docname="2026.svg"
   xmlns:inkscape="http://www.inkscape.org/namespaces/inkscape"
   xmlns:sodipodi="http://sodipodi.sourceforge.net/DTD/sodipodi-0.dtd"
   xmlns="http://www.w3.org/2000/svg"
   xmlns:svg="http://www.w3.org/2000/svg">
  <sodipodi:namedview
     id="namedview1"
     pagecolor="#ffffff"
     bordercolor="#000000"
     borderopacity="0.25"
     inkscape:showpageshadow="2"
     inkscape:pageopacity="0.0"
     inkscape:pagecheckerboard="0"
     inkscape:deskcolor="#d1d1d1"
     inkscape:document-units="mm"
     inkscape:zoom="6.0649272"
     inkscape:cx="211.37929"
     inkscape:cy="205.85573"
     inkscape:window-width="2400"
     inkscape:window-height="1261"
     inkscape:window-x="4791"
     inkscape:window-y="-9"
     inkscape:window-maximized="1"
     inkscape:current-layer="path9" />
  <defs
     id="defs1" />
  <g
     inkscape:label="Capa 1"
     inkscape:groupmode="layer"
     id="layer1"
     transform="translate(-28.659088,-70.047461)">
    <g
       id="path9"
       style="font-size:4.28678px;font-family:Arial;-inkscape-font-specification:'Arial, Normal';stroke:#000000;stroke-width:0.264583;stroke-opacity:0"
       transform="matrix(0.7192828,0,0,0.94064229,31.701708,11.356854)">
      <path
         style="font-size:21.1667px;font-family:Forte;-inkscape-font-specification:'Forte, Normal';text-align:center;baseline-shift:baseline;text-anchor:middle;display:inline;overflow:visible;vector-effect:none;fill:none;stroke:#000000;stroke-opacity:1;enable-background:accumulate;stop-color:#000000;stop-opacity:1"
         d="m 142.65162,113.11529 c 1.02664,0 1.53996,0.12058 1.53996,0.36173 0,0.27561 -0.23082,0.42375 -0.69246,0.44442 -0.55811,0.0345 -1.07832,0.19294 -1.56063,0.47543 -0.48231,0.28249 -0.91295,0.66834 -1.29191,1.15755 -0.37207,0.48921 -0.66491,1.04042 -0.87851,1.65365 -0.2067,0.61323 -0.31005,1.26091 -0.31005,1.94304 0,0.75103 0.1757,1.35736 0.5271,1.81901 0.3514,0.45475 0.8096,0.68213 1.37459,0.68213 0.52365,0 0.98185,-0.26872 1.3746,-0.80615 0.39274,-0.53744 0.58911,-1.16445 0.58911,-1.88103 0,-0.58567 -0.12402,-1.13344 -0.37207,-1.64331 -0.24116,-0.51677 -0.59601,-0.95085 -1.06454,-1.30225 -0.19981,-0.15847 -0.29972,-0.27216 -0.29972,-0.34107 0,-0.0965 0.14125,-0.2446 0.42375,-0.44441 0.31695,-0.2136 0.67179,-0.39275 1.06453,-0.53744 0.39274,-0.14469 0.72347,-0.21704 0.99219,-0.21704 0.31006,0 0.60289,0.0827 0.8785,0.24805 0.2825,0.15847 0.53055,0.38929 0.74414,0.69246 0.2136,0.29628 0.37552,0.64079 0.48576,1.03353 0.11713,0.38585 0.1757,0.79927 0.1757,1.24024 0,0.73036 -0.1378,1.45383 -0.41341,2.17041 -0.27561,0.70969 -0.63734,1.28503 -1.08521,1.726 -0.57877,0.55811 -1.27813,1.0163 -2.09806,1.37459 -0.81305,0.3514 -1.5882,0.5271 -2.32545,0.5271 -0.71658,0 -1.42971,-0.12402 -2.1394,-0.37207 -0.7028,-0.24805 -1.26091,-0.57533 -1.67432,-0.98185 -0.55122,-0.55122 -0.82683,-1.33326 -0.82683,-2.34612 0,-0.79926 0.19637,-1.59852 0.58912,-2.39779 0.39274,-0.79926 0.92328,-1.52273 1.59163,-2.17041 0.67524,-0.65457 1.41594,-1.16789 2.22209,-1.53996 0.81305,-0.37896 1.63298,-0.56844 2.4598,-0.56844 z"
         id="path32" />
      <path
         style="font-size:21.1667px;font-family:Forte;-inkscape-font-specification:'Forte, Normal';text-align:center;baseline-shift:baseline;text-anchor:middle;display:inline;overflow:visible;vector-effect:none;fill:none;stroke:#000000;stroke-opacity:1;enable-background:accumulate;stop-color:#000000;stop-opacity:1"
         d="m 129.44311,110.68649 c -0.35141,0 -0.52711,-0.11369 -0.52711,-0.34106 0,-0.30317 0.40308,-0.61323 1.20924,-0.93018 0.71658,-0.26872 1.26779,-0.40308 1.65364,-0.40308 0.24116,0 0.47198,0.0413 0.69247,0.12403 0.22049,0.0827 0.45475,0.21704 0.7028,0.40307 0.34451,0.25494 0.62011,0.38241 0.82682,0.38241 0.2136,0 0.43064,-0.0344 0.65113,-0.10335 0.20671,-0.0275 0.30661,-0.0413 0.29972,-0.0413 0.0827,0 0.15159,0.0276 0.20671,0.0827 0.062,0.0483 0.093,0.12061 0.093,0.21704 0,0.14469 -0.14814,0.32039 -0.44442,0.5271 -0.70969,0.44787 -1.32637,0.6718 -1.85002,0.6718 -0.44787,0 -0.93363,-0.18948 -1.45728,-0.56845 -0.31695,-0.22737 -0.56499,-0.34106 -0.74414,-0.34106 -0.11713,0 -0.3135,0.0517 -0.58911,0.15503 -0.30317,0.11024 -0.54433,0.16536 -0.72347,0.16536 z"
         id="path31" />
      <path
         style="font-size:21.1667px;font-family:Forte;-inkscape-font-specification:'Forte, Normal';text-align:center;baseline-shift:baseline;text-anchor:middle;display:inline;overflow:visible;vector-effect:none;fill:none;stroke:#000000;stroke-opacity:1;enable-background:accumulate;stop-color:#000000;stop-opacity:1"
         d="m 129.40181,118.05556 0.62012,-0.72347 c 0.62701,-0.69591 1.1231,-1.21267 1.48829,-1.55029 0.37207,-0.34451 0.7028,-0.59256 0.99219,-0.74414 0.29627,-0.15159 0.596,-0.22738 0.89917,-0.22738 0.4892,0 0.83371,0.13091 1.03353,0.39274 0.19981,0.26183 0.29972,0.71658 0.29972,1.36426 0,0.26872 -0.0276,0.66491 -0.0827,1.18856 -0.0827,0.69591 -0.12403,1.35048 -0.12403,1.96371 0,0.68902 0.0344,1.24713 0.10336,1.67432 0.0482,0.26183 0.12055,0.52365 0.21704,0.78548 0.0689,0.24805 0.10335,0.41686 0.10335,0.50643 0,0.11024 -0.0413,0.19637 -0.12402,0.25838 -0.2136,0.18604 -0.4961,0.34796 -0.8475,0.48576 -0.3514,0.13781 -0.64768,0.20671 -0.88883,0.20671 -0.39274,0 -0.75103,-0.13436 -1.07487,-0.40308 -0.31695,-0.26872 -0.565,-0.64079 -0.74415,-1.11621 -0.17225,-0.47543 -0.25838,-1.01286 -0.25838,-1.61231 0,-0.39963 0.0413,-0.87161 0.12403,-1.41594 l -0.0413,-0.0413 c -0.29627,0.33073 -0.53743,0.59256 -0.72347,0.78549 -0.17915,0.19292 -0.34796,0.37551 -0.50643,0.54777 -0.7717,0.88195 -1.42627,1.67776 -1.9637,2.38745 -0.20671,0.27561 -0.39619,0.51676 -0.56845,0.72347 -0.25493,0.25494 -0.54432,0.38241 -0.86816,0.38241 -0.44097,0 -0.79926,-0.16537 -1.07487,-0.4961 -0.27561,-0.33073 -0.41342,-0.75792 -0.41342,-1.28157 0,-0.32384 0.0379,-0.72003 0.11369,-1.18856 0.0758,-0.46853 0.1757,-0.96807 0.29973,-1.49862 0.13091,-0.53744 0.2825,-1.08866 0.45475,-1.65365 0.17915,-0.56499 0.37207,-1.10243 0.57878,-1.61231 0.31695,-0.84749 0.7028,-1.50895 1.15755,-1.98438 0.31006,-0.31005 0.68558,-0.46508 1.12655,-0.46508 0.71658,0 1.07487,0.46509 1.07487,1.39526 0,0.68213 -0.14125,1.6571 -0.42375,2.92489 z"
         id="path30" />
      <path
         style="font-size:21.1667px;font-family:Forte;-inkscape-font-specification:'Forte, Normal';text-align:center;baseline-shift:baseline;text-anchor:middle;display:inline;overflow:visible;vector-effect:none;fill:none;stroke:#000000;stroke-opacity:1;enable-background:accumulate;stop-color:#000000;stop-opacity:1"
         d="m 120.98888,118.13825 -0.19637,0.062 c -0.49609,0.1378 -0.85438,0.2067 -1.07487,0.2067 -0.26872,0 -0.40308,-0.0689 -0.40308,-0.2067 0,-0.0483 0.0551,-0.17574 0.16537,-0.38241 0.38585,-0.58567 0.57877,-1.13688 0.57877,-1.65365 0,-0.29627 -0.0517,-0.56499 -0.15503,-0.80615 -0.10335,-0.24805 -0.21704,-0.37207 -0.34106,-0.37207 -0.11025,0 -0.27906,0.11713 -0.50643,0.3514 -0.64079,0.69591 -1.15067,1.40904 -1.52963,2.13941 -0.37207,0.73036 -0.5581,1.38148 -0.5581,1.95337 0,0.37896 0.0758,0.69246 0.22737,0.94051 0.15848,0.24805 0.35485,0.37207 0.58912,0.37207 0.19981,0 0.57188,-0.2136 1.11621,-0.64079 0.55121,-0.42719 1.16789,-0.99218 1.85002,-1.69499 l 0.27905,-0.22737 z m -0.62012,2.36678 v 0.0413 l -0.0413,-0.0413 c -0.64079,0.75103 -1.2299,1.36771 -1.76734,1.85002 -0.53054,0.47543 -1.02319,0.83372 -1.47794,1.07487 -0.44787,0.24116 -0.86128,0.36174 -1.24024,0.36174 -0.77171,0 -1.40905,-0.25838 -1.91203,-0.77515 -0.50299,-0.51677 -0.75448,-1.17134 -0.75448,-1.96371 0,-0.4892 0.12402,-1.06798 0.37207,-1.73633 0.24805,-0.66835 0.58911,-1.32292 1.0232,-1.96371 0.72347,-1.04731 1.63297,-1.93614 2.72852,-2.6665 1.12999,-0.75103 2.21864,-1.12655 3.26595,-1.12655 0.88195,0 1.60542,0.18259 2.17042,0.54777 0.57189,0.35829 0.85783,0.81304 0.85783,1.36426 0,0.40652 -0.14125,0.83716 -0.42375,1.29191 0.37207,0 0.60633,0.0413 0.7028,0.12402 0.0965,0.0758 0.14469,0.25839 0.14469,0.54778 0,-0.0276 -0.0172,0.11365 -0.0517,0.42374 -0.0413,0.68213 -0.062,1.31948 -0.062,1.91203 0,0.31006 0.003,0.54433 0.0103,0.7028 0.007,0.15848 0.0206,0.34107 0.0413,0.54778 0.0207,0.2067 0.0413,0.37206 0.062,0.49609 0.0551,0.32384 0.14471,0.64423 0.26872,0.96118 -0.41341,0.40653 -0.8096,0.70625 -1.18856,0.89917 -0.37896,0.18604 -0.76481,0.27906 -1.15755,0.27906 -1.06109,0 -1.59164,-0.88884 -1.59164,-2.66651 0,-0.20671 0.007,-0.36863 0.0207,-0.48576 z"
         id="path29" />
      <path
         style="font-size:21.1667px;font-family:Forte;-inkscape-font-specification:'Forte, Normal';text-align:center;baseline-shift:baseline;text-anchor:middle;display:inline;overflow:visible;vector-effect:none;fill:none;stroke:#000000;stroke-opacity:1;enable-background:accumulate;stop-color:#000000;stop-opacity:1"
         d="m 103.9563,115.53375 c -1.23355,0.44847 -2.50017,0.86095 -3.8128,0.98492 -0.454714,0.0937 -1.07406,-0.12823 -1.013788,-0.6852 0.06527,-0.92843 0.719614,-1.75545 1.519288,-2.19108 0.67679,-0.28657 1.42733,-0.12183 2.13914,-0.12963 1.16043,0.0722 2.33198,0.0465 3.48327,0.22257 0.57733,0.0421 0.9808,0.6743 0.58137,1.16504 -0.88497,1.72215 -1.99845,3.31373 -3.05942,4.9297 -0.25544,0.3802 -0.51181,0.75977 -0.76724,1.13997 1.05528,0.035 2.12171,-0.10311 3.10205,-0.50998 0.72554,-0.36885 0.70114,0.69364 0.56069,1.12122 -0.27588,1.36372 -1.55543,2.29637 -2.87871,2.50211 -1.08116,0.13779 -2.1878,0.0245 -3.24776,-0.21197 -0.724815,-0.19773 -1.561955,-0.44528 -1.958164,-1.13937 -0.276427,-0.55499 0.20686,-1.08164 0.548741,-1.47521 0.731003,-0.81755 1.502903,-1.59893 2.198153,-2.44782 0.96085,-1.01042 1.84261,-2.09505 2.64652,-3.23401 l -0.0208,-0.0207 z"
         id="path28" />
      <path
         style="font-size:21.1667px;font-family:Forte;-inkscape-font-specification:'Forte, Normal';text-align:center;baseline-shift:baseline;text-anchor:middle;display:inline;overflow:visible;vector-effect:none;fill:none;stroke:#000000;stroke-opacity:1;enable-background:accumulate;stop-color:#000000;stop-opacity:1"
         d="m 96.101468,113.22898 c -0.647679,-0.0207 -0.971519,-0.40996 -0.971519,-1.16789 0,-0.37896 0.09302,-0.81649 0.279054,-1.31259 0.192925,-0.50298 0.409967,-0.87505 0.651124,-1.11621 0.124023,-0.13091 0.248047,-0.22393 0.372071,-0.27905 0.130913,-0.0551 0.296278,-0.0827 0.496094,-0.0827 0.34451,0 0.596002,0.0861 0.754477,0.25838 0.165365,0.16537 0.248048,0.44442 0.248048,0.83716 0,0.4892 -0.08613,0.95429 -0.258383,1.39526 -0.165365,0.43409 -0.389296,0.78893 -0.671795,1.06454 -0.282498,0.26872 -0.571886,0.40308 -0.868165,0.40308 z"
         id="path27" />
      <path
         style="font-size:21.1667px;font-family:Forte;-inkscape-font-specification:'Forte, Normal';text-align:center;baseline-shift:baseline;text-anchor:middle;display:inline;overflow:visible;vector-effect:none;fill:none;stroke:#000000;stroke-opacity:1;enable-background:accumulate;stop-color:#000000;stop-opacity:1"
         d="m 94.861232,123.61596 c -0.310059,-0.0207 -0.592558,-0.16192 -0.847495,-0.42375 -0.254937,-0.27561 -0.437528,-0.57189 -0.547771,-0.88884 -0.103353,-0.32384 -0.15503,-0.7407 -0.15503,-1.25057 0,-1.13688 0.210151,-2.41846 0.630454,-3.84473 0.427192,-1.43316 0.909506,-2.47014 1.446942,-3.11093 0.213596,-0.26871 0.509875,-0.40307 0.888836,-0.40307 0.399632,0 0.720026,0.18259 0.961183,0.54777 0.248047,0.36518 0.372071,0.84405 0.372071,1.4366 0,0.87506 -0.127469,1.9017 -0.382406,3.07992 -0.248047,1.17134 -0.599448,2.39091 -1.054201,3.6587 -0.179145,0.50987 -0.399632,0.85438 -0.661459,1.03353 -0.179145,0.11025 -0.389297,0.16537 -0.630454,0.16537 z"
         id="path26" />
      <path
         style="font-size:21.1667px;font-family:Forte;-inkscape-font-specification:'Forte, Normal';text-align:center;baseline-shift:baseline;text-anchor:middle;display:inline;overflow:visible;vector-effect:none;fill:none;stroke:#000000;stroke-opacity:1;enable-background:accumulate;stop-color:#000000;stop-opacity:1"
         d="m 89.22849,115.7818 c 0.275609,-0.77859 0.506431,-1.59164 0.692466,-2.43913 0.186035,-0.85439 0.279053,-1.50896 0.279053,-1.96371 0,-0.12403 -0.03445,-0.18604 -0.103353,-0.18604 -0.110243,0 -0.303169,0.24805 -0.578777,0.74414 -0.275608,0.48921 -0.50643,0.98875 -0.692465,1.49862 -0.399632,1.12311 -0.709691,2.05673 -0.930178,2.80087 -0.213596,0.73725 -0.361735,1.35737 -0.444418,1.86036 -0.08268,0.50298 -0.124023,1.0163 -0.124023,1.53996 0,0.44786 0.04823,0.77514 0.144694,0.98185 0.103353,0.20671 0.265272,0.31006 0.485759,0.31006 0.378961,0 0.802709,-0.16537 1.271242,-0.4961 0.468534,-0.33762 0.892282,-0.77859 1.271243,-1.32292 0.296279,-0.40652 0.5271,-0.60978 0.692465,-0.60978 0.213596,0 0.320394,0.16881 0.320394,0.50643 0,0.73725 -0.230822,1.45728 -0.692465,2.16008 -0.461643,0.7028 -1.057646,1.27469 -1.788007,1.71566 -0.723471,0.43408 -1.464168,0.65112 -2.22209,0.65112 -0.930177,0 -1.6881,-0.29283 -2.273767,-0.8785 -0.585667,-0.58567 -0.878501,-1.35048 -0.878501,-2.29443 0,-0.77171 0.165365,-1.67432 0.496095,-2.70785 0.330729,-1.04042 0.771702,-2.08429 1.322918,-3.1316 0.558107,-1.0542 1.16789,-2.00849 1.829349,-2.86288 0.661459,-0.85439 1.316029,-1.50896 1.963708,-1.96371 0.399631,-0.29627 0.844049,-0.44441 1.333254,-0.44441 0.372071,0 0.70969,0.11713 1.012859,0.3514 0.303169,0.22737 0.537436,0.54777 0.702801,0.96118 0.165365,0.41341 0.248047,0.87161 0.248047,1.37459 0,1.08177 -0.213596,2.13941 -0.640789,3.17294 -0.420302,1.03353 -1.009414,1.92926 -1.767336,2.68718 -0.358291,0.36518 -0.702801,0.65112 -1.033531,0.85783 -0.330729,0.20671 -0.620118,0.31006 -0.868165,0.31006 -0.241157,0 -0.361736,-0.093 -0.361736,-0.27905 0,-0.10335 0.08957,-0.29972 0.268718,-0.58911 0.241157,-0.37897 0.523656,-0.95086 0.847495,-1.71567 0.02756,-0.0758 0.05857,-0.15502 0.09302,-0.23771 0.03445,-0.0896 0.07579,-0.21015 0.124023,-0.36173 z"
         id="path25" />
      <path
         style="font-size:21.1667px;font-family:Forte;-inkscape-font-specification:'Forte, Normal';text-align:center;baseline-shift:baseline;text-anchor:middle;display:inline;overflow:visible;vector-effect:none;fill:none;stroke:#000000;stroke-opacity:1;enable-background:accumulate;stop-color:#000000;stop-opacity:1"
         d="m 78.180054,120.29832 c 0.316949,-0.21359 0.558106,-0.42719 0.723471,-0.64078 0.365181,-0.44787 0.647679,-0.96119 0.847495,-1.53996 0.158475,-0.37897 0.282498,-0.80272 0.372071,-1.27125 0.08957,-0.46853 0.134359,-0.90606 0.134359,-1.31258 0,-0.37896 -0.07924,-0.56844 -0.237712,-0.56844 -0.220487,0 -0.558107,0.48576 -1.01286,1.45728 -0.268718,0.58567 -0.489204,1.17133 -0.661459,1.757 -0.165365,0.57877 -0.248047,1.07831 -0.248047,1.49862 0,0.14469 0.02756,0.3514 0.08268,0.62011 z m 0.02067,0.33073 c 0.07579,0.41341 0.34451,0.62012 0.806153,0.62012 0.516765,0 1.18856,-0.30317 2.015384,-0.9095 0.482314,-0.3514 0.806154,-0.5271 0.971519,-0.5271 0.206706,0 0.399632,0.0551 0.578777,0.16536 0.179145,0.11025 0.268718,0.22394 0.268718,0.34107 0,0.12402 -0.09991,0.28594 -0.299724,0.48575 -0.365181,0.36519 -0.785483,0.72348 -1.260907,1.07488 -0.475424,0.34451 -0.933622,0.63389 -1.374595,0.86816 -0.440973,0.22738 -0.881946,0.40997 -1.322919,0.54777 -0.440973,0.13091 -0.833715,0.19637 -1.178225,0.19637 -0.861275,0 -1.550295,-0.2446 -2.06706,-0.7338 -0.516765,-0.4961 -0.775148,-1.15412 -0.775148,-1.97405 0,-0.62701 0.134359,-1.33325 0.403077,-2.11873 0.275608,-0.79237 0.644234,-1.53307 1.105877,-2.22209 0.544326,-0.80615 1.212676,-1.47795 2.005049,-2.01539 0.978409,-0.64768 1.915476,-0.97152 2.811202,-0.97152 0.647679,0 1.154109,0.20671 1.51929,0.62012 0.372071,0.40653 0.558106,0.96808 0.558106,1.68466 0,0.55811 -0.148139,1.14033 -0.444418,1.74666 -0.289389,0.60634 -0.720026,1.18856 -1.291913,1.74667 -0.468533,0.46853 -0.930177,0.83371 -1.38493,1.09554 -0.447863,0.26183 -0.840605,0.39274 -1.178225,0.39274 -0.151584,0 -0.306613,-0.0379 -0.465088,-0.11369 z"
         id="path24" />
      <path
         style="font-size:21.1667px;font-family:Forte;-inkscape-font-specification:'Forte, Normal';text-align:center;baseline-shift:baseline;text-anchor:middle;display:inline;overflow:visible;fill:none;stroke:#000000;stroke-width:0.265;stroke-dasharray:none;stroke-opacity:1;enable-background:accumulate;stop-color:#000000;stop-opacity:1"
         d="m 67.48937,115.02616 c 0.155714,-0.748 0.311427,-1.49601 0.467141,-2.24401 -0.665466,0.14762 -1.33066,-0.4083 -1.907815,-0.69592 -0.508673,-0.70124 0.428397,-1.40579 0.825343,-1.91764 0.468325,-0.56028 1.165498,-0.94753 1.913226,-0.80401 1.572098,0.0421 3.140301,0.17161 4.710896,0.22635 0.804118,-5.1e-4 1.157765,0.84124 0.976364,1.53338 -0.03724,0.70469 -0.698978,1.09046 -1.322596,1.20806 -0.447657,0.22405 -1.272641,-0.0866 -1.507077,0.35532 -0.353748,1.17261 -0.707497,2.34522 -1.061246,3.51783 1.072287,0.0397 2.17117,-0.21645 3.222838,0.0646 0.674286,0.26886 0.321328,1.11848 0.05713,1.56876 -0.295015,0.72295 -0.949818,1.27798 -1.766489,1.14364 -0.773598,0.003 -1.547892,0.002 -2.31963,0.0652 -0.479533,1.53971 -0.941379,3.26477 -2.330126,4.24491 -0.728249,0.57353 -1.961628,0.56827 -2.499692,-0.25941 -0.476394,-0.61097 -0.808141,-1.42025 -0.280436,-2.10772 0.593979,-1.25597 1.326947,-2.43966 1.868575,-3.72122 0.325719,-0.72227 0.67146,-1.43741 0.953597,-2.17815 z"
         id="path1" />
    </g>
    <g
       id="path10"
       style="font-size:4.28678px;font-family:Arial;-inkscape-font-specification:'Arial, Normal';fill:none;stroke:#000000;stroke-width:0.264583;stroke-opacity:1"
       transform="matrix(0.7192828,0,0,0.94064229,31.701708,11.356854)">
      <path
         style="font-size:21.1667px;font-family:Forte;-inkscape-font-specification:'Forte, Normal';text-align:center;baseline-shift:baseline;text-anchor:middle;display:inline;overflow:visible;vector-effect:none;fill:none;stroke:#000000;stroke-opacity:1;enable-background:accumulate;stop-color:#000000;stop-opacity:1"
         d="m 120.28608,141.95078 q -0.36174,0 -0.74414,0.42375 -0.38241,0.42375 -0.63046,1.08521 -0.23771,0.65112 -0.23771,1.28158 0,0.84749 0.3204,1.5813 0.33072,0.7338 0.89917,1.17822 0.57877,0.43408 1.19889,0.43408 0.33073,0 0.5271,-0.18603 0.33073,-0.38241 0.53744,-1.24024 0.21704,-0.85783 0.21704,-1.82935 0,-0.85783 -0.25838,-1.46761 -0.24805,-0.62012 -0.71314,-0.94051 -0.45475,-0.3204 -1.11621,-0.3204 z m 1.15755,-1.86035 -0.63045,0.73381 0.0413,0.0413 q 1.38493,-0.90951 2.36678,-0.90951 0.74415,0 1.32292,0.36174 0.58911,0.36173 0.90951,0.99219 0.33073,0.62011 0.33073,1.42627 0,0.97152 -0.3204,2.01538 -0.32039,1.03353 -0.9095,2.00505 -0.58911,0.96118 -1.3746,1.71566 -0.7028,0.68213 -1.73633,1.08521 -1.03353,0.39274 -2.02572,0.39274 -1.91203,0 -2.91455,-0.80616 -1.00253,-0.81648 -1.00253,-2.36678 0,-1.37459 0.88884,-3.40031 0.88883,-2.02572 2.74919,-4.87827 0.73381,-1.16789 1.20923,-1.67432 0.23771,-0.25838 0.44442,-0.36173 0.2067,-0.10335 0.65112,-0.16537 0.77515,-0.12402 1.57097,-0.12402 1.20923,0 1.20923,0.65112 0,0.33073 -0.76481,1.01286 -0.44442,0.37207 -1.43661,1.57097 z"
         id="path35" />
      <path
         style="font-size:21.1667px;font-family:Forte;-inkscape-font-specification:'Forte, Normal';text-align:center;baseline-shift:baseline;text-anchor:middle;display:inline;overflow:visible;vector-effect:none;fill:none;stroke:#000000;stroke-opacity:1;enable-background:accumulate;stop-color:#000000;stop-opacity:1"
         d="m 109.04127,144.76199 0.16536,-0.20671 q 0.7028,-1.06454 0.99219,-1.5813 0.28939,-0.51677 0.46509,-1.08521 0.25838,-0.78548 0.25838,-1.63298 0,-0.86816 -0.21704,-1.30224 -0.2067,-0.43409 -0.77515,-0.71314 -0.72347,1.04387 -0.72347,2.64584 0,0.62012 0.19637,1.27124 0.0827,0.23771 0.0827,0.32039 0,0.29973 -0.3204,0.29973 -0.28939,0 -0.78548,-0.23771 -0.4961,-0.24805 -0.75448,-0.50643 -0.28939,-0.31006 -0.47542,-0.80616 -0.18604,-0.49609 -0.18604,-1.0542 0,-0.78548 0.3204,-1.49862 0.33073,-0.71313 0.91984,-1.24023 0.58911,-0.5271 1.39526,-0.81649 0.81649,-0.29973 1.726,-0.29973 0.90951,0 1.65365,0.40308 0.75448,0.39274 1.19889,1.09554 0.44442,0.69247 0.44442,1.50896 0,0.60978 -0.23771,1.30225 -0.22738,0.69246 -0.73381,1.55029 -0.49609,0.8475 -1.28157,1.87069 -0.78549,1.0232 -1.82935,2.20142 l -0.20671,0.24805 -0.1757,0.19637 q 0.43408,0.12402 1.18856,0.12402 0.75448,0 1.50895,-0.0827 0.76482,-0.0827 1.1989,-0.21704 0.28939,-0.0827 0.38241,-0.0827 0.10335,0 0.10335,0.062 0,0.3824 -0.4961,1.18856 -0.48575,0.80615 -1.02319,1.33325 -0.55811,0.5271 -1.34359,0.77515 -0.77515,0.23771 -1.92237,0.23771 -1.46761,0 -2.52181,-0.40308 -1.0542,-0.40307 -1.0542,-0.97151 0,-0.39275 1.06454,-1.57097 0.75447,-0.85783 1.37459,-1.70533 0.0413,-0.062 0.0827,-0.12402 0.0517,-0.062 0.0827,-0.11369 0.0413,-0.062 0.10335,-0.16536 z"
         id="path34" />
      <path
         style="font-size:21.1667px;font-family:Forte;-inkscape-font-specification:'Forte, Normal';text-align:center;baseline-shift:baseline;text-anchor:middle;display:inline;overflow:visible;vector-effect:none;fill:none;stroke:#000000;stroke-opacity:1;enable-background:accumulate;stop-color:#000000;stop-opacity:1"
         d="m 103.09847,136.67978 h 0.10335 q 0.55811,0 1.06454,0.50643 0.51676,0.50643 0.81649,1.35392 0.29972,0.8475 0.29972,1.77768 0,0.94051 -0.26872,2.09806 -0.26871,1.14722 -0.72347,2.21176 -0.44442,1.06453 -1.0852,2.06706 -0.63046,1.00252 -1.31259,1.66398 -1.61231,1.63298 -3.29696,1.63298 -1.126548,0 -1.984378,-0.55811 -0.85783,-0.56844 -1.322919,-1.60197 -0.465089,-1.04386 -0.465089,-2.38745 0,-2.31511 0.961184,-4.43385 0.971518,-2.12907 2.563155,-3.44165 1.591637,-1.31259 3.276287,-1.31259 0.81649,0 1.3746,0.42375 z m -0.93018,0.48576 0.18604,-0.10335 -0.0413,-0.0413 q -0.66146,0.0103 -1.36426,0.6718 -0.69247,0.65112 -1.250576,1.68465 -0.558106,1.03353 -0.909506,2.33578 -0.351401,1.30225 -0.351401,2.4598 0,0.83716 0.289389,1.726 0.299724,0.8785 0.744142,1.46761 0.454753,0.58912 0.868162,0.58912 0.3204,0 0.6718,-0.42375 0.3514,-0.43408 0.64079,-1.21957 0.29972,-0.75448 0.51676,-1.5813 0.21704,-0.82682 0.33073,-1.63298 0.11369,-0.80615 0.11369,-1.46761 0,-1.04387 -0.34107,-1.98438 -0.33072,-0.95085 -0.86816,-1.4056 -0.10335,-0.0724 -0.10335,-0.14469 0,-0.23772 0.86816,-0.93018 z"
         id="path33" />
      <path
         style="font-size:21.1667px;font-family:Forte;-inkscape-font-specification:'Forte, Normal';text-align:center;baseline-shift:baseline;text-anchor:middle;display:inline;overflow:visible;vector-effect:none;fill:none;stroke:#000000;stroke-opacity:1;enable-background:accumulate;stop-color:#000000;stop-opacity:1"
         d="m 88.318986,144.76199 0.165365,-0.20671 q 0.7028,-1.06454 0.992189,-1.5813 0.289388,-0.51677 0.465088,-1.08521 0.258383,-0.78548 0.258383,-1.63298 0,-0.86816 -0.217041,-1.30224 -0.206707,-0.43409 -0.775148,-0.71314 -0.723471,1.04387 -0.723471,2.64584 0,0.62012 0.19637,1.27124 0.08268,0.23771 0.08268,0.32039 0,0.29973 -0.320395,0.29973 -0.289388,0 -0.785483,-0.23771 -0.496094,-0.24805 -0.754477,-0.50643 -0.289388,-0.31006 -0.475424,-0.80616 -0.186035,-0.49609 -0.186035,-1.0542 0,-0.78548 0.320394,-1.49862 0.33073,-0.71313 0.919842,-1.24023 0.589112,-0.5271 1.395266,-0.81649 0.816489,-0.29973 1.725996,-0.29973 0.909506,0 1.653648,0.40308 0.754477,0.39274 1.198895,1.09554 0.444418,0.69247 0.444418,1.50896 0,0.60978 -0.237712,1.30225 -0.227376,0.69246 -0.733806,1.55029 -0.496095,0.8475 -1.281578,1.87069 -0.785483,1.0232 -1.829348,2.20142 l -0.206706,0.24805 -0.175701,0.19637 q 0.434083,0.12402 1.18856,0.12402 0.754477,0 1.508955,-0.0827 0.764812,-0.0827 1.198895,-0.21704 0.289388,-0.0827 0.382406,-0.0827 0.103353,0 0.103353,0.062 0,0.3824 -0.496095,1.18856 -0.485759,0.80615 -1.023195,1.33325 -0.558106,0.5271 -1.343589,0.77515 -0.775148,0.23771 -1.922366,0.23771 -1.467613,0 -2.521814,-0.40308 -1.054201,-0.40307 -1.054201,-0.97151 0,-0.39275 1.064536,-1.57097 0.754477,-0.85783 1.374595,-1.70533 0.04134,-0.062 0.08268,-0.12402 0.05168,-0.062 0.08268,-0.11369 0.04134,-0.062 0.103353,-0.16536 z"
         id="path11" />
    </g>
    <path
       style="baseline-shift:baseline;display:inline;overflow:visible;vector-effect:none;fill:none;stroke:#000000;stroke-width:0.822549;stroke-opacity:1;enable-background:accumulate;stop-color:#000000"
       d="m 61.320335,95.841625 a 2.4406992,3.1918252 0 0 1 -2.440699,3.19183 2.4406992,3.1918252 0 0 1 -2.4407,-3.19183 2.4406992,3.1918252 0 0 1 2.4407,-3.191826 2.4406992,3.1918252 0 0 1 2.440699,3.191826 z"
       id="path13" />
    <path
       style="baseline-shift:baseline;display:inline;overflow:visible;vector-effect:none;fill:none;stroke:#000000;stroke-width:0.822549;stroke-opacity:1;enable-background:accumulate;stop-color:#000000"
       d="m 108.14113,80.371338 -1.22983,2.408633 0.82003,2.690388 -2.13172,-0.785296 -1.70318,1.851281 -0.0876,-2.893972 -1.87264,-1.546233 2.07756,-1.003278 0.5458,-2.806905 1.37163,2.273913 z"
       id="path15" />
    <path
       style="baseline-shift:baseline;display:inline;overflow:visible;vector-effect:none;fill:none;stroke:#000000;stroke-width:0.822549;stroke-opacity:1;enable-background:accumulate;stop-color:#000000"
       d="m 56.527691,174.82626 -1.224176,-2.92716 -2.238317,-1.60091 2.238317,-1.60092 1.224176,-2.92717 1.224176,2.92717 2.238317,1.60092 -2.238317,1.60091 z"
       id="path17" />
    <path
       style="baseline-shift:baseline;display:inline;overflow:visible;vector-effect:none;fill:none;stroke:#000000;stroke-width:0.822549;stroke-opacity:1;enable-background:accumulate;stop-color:#000000"
       d="m 160.63459,166.84351 -1.18118,-3.50332 -2.91059,0.41391 1.72939,-3.08941 -1.72939,-3.08942 2.91059,0.41391 1.18118,-3.50332 1.18121,3.50332 2.91058,-0.41391 -1.7294,3.08942 1.7294,3.08941 -2.91058,-0.41391 z"
       id="path19" />
    <path
       style="baseline-shift:baseline;display:inline;overflow:visible;vector-effect:none;fill:none;stroke:#000000;stroke-width:0.822549;stroke-opacity:1;enable-background:accumulate;stop-color:#000000"
       d="m 156.37447,105.01086 c 0,1.89099 -1.1722,3.42395 -2.6182,3.42395 -1.446,0 -2.61821,-1.53296 -2.61821,-3.42395 0,-1.891 1.17221,-3.42396 2.61821,-3.42396 1.446,0 2.6182,1.53296 2.6182,3.42396 z"
       id="path21" />
    <path
       style="baseline-shift:baseline;display:inline;overflow:visible;vector-effect:none;fill:none;stroke:#000000;stroke-width:0.429914;stroke-opacity:1;enable-background:accumulate;stop-color:#000000"
       d="m 109.32505,189.57068 -1.44288,3.40664 1.82779,1.60906 0.5641,0.49661 -2.8646,0.68294 0.21204,3.85456 -2.12922,-2.55502 -2.1275,2.70088 0.20951,-3.86901 -2.86498,-0.48661 2.39048,-2.26954 -1.44508,-3.30769 2.77136,1.03893 1.063,-3.63799 1.06535,3.56507 z"
       id="path23"
       sodipodi:nodetypes="cccccccccccccccc" />
  </g>
</svg>
