<?xml version="1.0" encoding="UTF-8" standalone="no"?>
<!-- Created with Inkscape (http://www.inkscape.org/) -->

<svg
   width="210mm"
   height="297mm"
   viewBox="0 0 210 297"
   version="1.1"
   id="svg1"
   xml:space="preserve"
   inkscape:version="1.3.1 (9b9bdc1480, 2023-11-25, custom)"
   sodipodi:docname="house_wifi.svg"
   xmlns:inkscape="http://www.inkscape.org/namespaces/inkscape"
   xmlns:sodipodi="http://sodipodi.sourceforge.net/DTD/sodipodi-0.dtd"
   xmlns="http://www.w3.org/2000/svg"
   xmlns:svg="http://www.w3.org/2000/svg"><sodipodi:namedview
     id="namedview1"
     pagecolor="#ffffff"
     bordercolor="#000000"
     borderopacity="0.25"
     inkscape:showpageshadow="2"
     inkscape:pageopacity="0.0"
     inkscape:pagecheckerboard="0"
     inkscape:deskcolor="#d1d1d1"
     inkscape:document-units="mm"
     inkscape:zoom="0.44186308"
     inkscape:cx="397.18186"
     inkscape:cy="561.25984"
     inkscape:window-width="1366"
     inkscape:window-height="699"
     inkscape:window-x="0"
     inkscape:window-y="32"
     inkscape:window-maximized="1"
     inkscape:current-layer="layer1" /><defs
     id="defs1" /><g
     inkscape:label="Capa 1"
     inkscape:groupmode="layer"
     id="layer1"><path
       fill="#63e6be"
       d="m 123.52885,83.012316 c -3.25437,-2.989792 -8.255,-2.989792 -11.48291,0 L 57.012604,133.81232 c -2.487083,2.27541 -3.360208,5.82083 -2.248958,8.99583 23.045208,6.69396 41.169167,24.92375 47.704374,48.04833 l 49.18605,-0.0264 c 7.01145,0 12.7,-5.68855 12.7,-12.70001 v -29.63338 h 8.46666 c 3.4925,0 6.61459,-2.14312 7.88459,-5.37104 1.27,-3.22792 0.42333,-6.93208 -2.14313,-9.31333 z M 105.0874,135.79669 c 0,-2.32833 1.905,-4.23333 4.23333,-4.23333 h 16.93333 c 2.32834,0 4.23334,1.905 4.23334,4.23333 v 16.93333 c 0,2.32834 -1.905,4.23334 -4.23334,4.23334 h -16.93333 c -2.32833,0 -4.23333,-1.905 -4.23333,-4.23334 z m -69.850004,12.7 c -3.518958,0 -6.35,2.83104 -6.35,6.35 0,3.51896 2.831042,6.35 6.35,6.35 26.881667,0 48.683333,21.80167 48.683333,48.68334 0,3.51895 2.831042,6.35 6.35,6.35 3.518959,0 6.35,-2.83105 6.35,-6.35 0,-33.89313 -27.490208,-61.38334 -61.383333,-61.38334 z m 2.116667,67.73334 a 8.46667,8.46667 0 1 0 0,-16.93334 8.46667,8.46667 0 1 0 0,16.93334 z m -8.466667,-35.98334 c 0,3.51896 2.831042,6.35 6.35,6.35 12.85875,0 23.283333,10.42459 23.283333,23.28334 0,3.51895 2.831042,6.35 6.35,6.35 3.518959,0 6.35,-2.83105 6.35,-6.35 0,-19.87021 -16.113125,-35.98334 -35.983333,-35.98334 -3.518958,0 -6.35,2.83104 -6.35,6.35 z"
       id="path1"
       style="stroke-width:2;fill:#ff481d;fill-opacity:1;stroke:#4d60ca;stroke-opacity:1;stroke-dasharray:none" /></g></svg>
